# xmcd
#
# Track frame offsets:
#	150
#	14130
#	30020
#	43045
#	53790
#	66705
#	79265
#	89480
#	105210
#	117855
#	129990
#	141720
#	154125
#	169655
#	181445
#	192585
#	204185
#	215410
#	225860
#	240405
#	253820
#	266555
#	278095
#	290040
#	301375
#
# Disc length: 4273 seconds
#
# Revision: 1
# Processed by: cddbd v1.5.1PL2 Copyright (c) Steve Scherf et al.
# Submitted via: audiograbber 1.83.01
#
DISCID=6a10af19
DTITLE=Various Artist - 100 No. 1 Country Hits
DYEAR=1900
DGENRE=Country
TTITLE0=Jimmy Dean - Big Bad John
TTITLE1=Billie Jo Spears - Blanket On The Ground
TTITLE2=Glen Campell - Rhinestone Cowboy
TTITLE3=George Hamilton IV - Abilene
TTITLE4=Tammy Wynette - Stand By Your Man
TTITLE5=Johnny Paycheck - Take This Job And Shove It
TTITLE6=Hank Locklin - Please Help Me I`m Falling (In Love With You)
TTITLE7=Melba Montgomery - No Charge
TTITLE8=Jack Blanchard and Misty Morgan - Tennessee Birdwalk
TTITLE9=Donna Fargo - The Happiest Girl In The USA
TTITLE10=Ray Price - Crazy Arms
TTITLE11=Hank Thompson - The Wild Side Of Life
TTITLE12=Lee Greenwood - Dixie Road
TTITLE13=Kitty Wells - It Wasn`t God Who Made Honky Tonk Angles
TTITLE14=Ferlin Husky - Gone
TTITLE15=Wyn Stewart - It`s Such A Pretty World Today
TTITLE16=Dave Dudley - The Pool Shark
TTITLE17=David Houston - With One Exception
TTITLE18=Margo Smith - It Only Hurts For A Little While
TTITLE19=Roy Clark - Come Live With Me
TTITLE20=Porter Wagoner - A Satisfied Mind
TTITLE21=The Carlisles - No Help Wanted
TTITLE22=Leon Ashley - Laura, What`s He Got ( That Ain`t Got)
TTITLE23=Carl Smith - Hey Joe
TTITLE24=Tanya Tucker - Delta Dawn
EXTD=
EXTT0=
EXTT1=
EXTT2=
EXTT3=
EXTT4=
EXTT5=
EXTT6=
EXTT7=
EXTT8=
EXTT9=
EXTT10=
EXTT11=
EXTT12=
EXTT13=
EXTT14=
EXTT15=
EXTT16=
EXTT17=
EXTT18=
EXTT19=
EXTT20=
EXTT21=
EXTT22=
EXTT23=
EXTT24=
PLAYORDER=
